<svg xmlns="http://www.w3.org/2000/svg" xmlns:xlink="http://www.w3.org/1999/xlink" width="500" zoomAndPan="magnify" viewBox="0 0 375 374.999991" height="500" preserveAspectRatio="xMidYMid meet" version="1.2"><defs><clipPath id="965652bab8"><path d="M 132.953125 127.535156 L 241.703125 127.535156 L 241.703125 207.785156 L 132.953125 207.785156 Z M 132.953125 127.535156 "/></clipPath></defs><g id="9a9fa53b26"><rect x="0" width="375" y="0" height="374.999991" style="fill:#ffffff;fill-opacity:1;stroke:none;"/><rect x="0" width="375" y="0" height="374.999991" style="fill:#ffffff;fill-opacity:1;stroke:none;"/><g clip-rule="nonzero" clip-path="url(#965652bab8)"><path style=" stroke:none;fill-rule:evenodd;fill:#1800ad;fill-opacity:1;" d="M 177.003906 159.894531 L 165.300781 148.191406 L 147.859375 165.632812 L 145.296875 163.070312 L 165.300781 143.066406 L 179.566406 157.332031 L 209.351562 127.550781 L 241.699219 159.894531 L 235.964844 165.632812 L 233.402344 163.070312 L 236.574219 159.894531 L 209.351562 132.675781 L 160.105469 181.921875 L 165.300781 187.117188 C 179.9375 172.480469 194.578125 157.839844 209.214844 143.199219 L 209.351562 143.066406 L 241.695312 175.414062 L 209.351562 207.761719 L 189.351562 187.757812 L 191.914062 185.195312 L 209.351562 202.636719 L 236.574219 175.414062 L 217.109375 155.949219 L 197.644531 175.414062 L 209.351562 187.121094 L 226.789062 169.679688 L 229.351562 172.242188 L 209.351562 192.242188 L 195.085938 177.976562 L 165.300781 207.761719 L 132.953125 175.414062 L 138.6875 169.679688 L 141.25 172.242188 L 138.078125 175.414062 L 165.296875 202.636719 L 214.546875 153.386719 L 209.347656 148.191406 C 194.710938 162.832031 180.070312 177.472656 165.433594 192.109375 L 165.296875 192.246094 L 132.953125 159.894531 L 165.300781 127.550781 L 185.300781 147.550781 L 182.738281 150.113281 L 165.300781 132.675781 L 138.078125 159.894531 L 157.542969 179.359375 Z M 177.003906 159.894531 "/></g><g style="fill:#ffffff;fill-opacity:1;"><g transform="translate(162.75605, 229.455806)"><path style="stroke:none" d="M 14.765625 -0.125 L 12.234375 -0.125 L 6.796875 -13.53125 L 6.71875 0 L 1.890625 0 L 1.890625 -21.328125 L 8.765625 -21.328125 L 13.53125 -9.03125 L 18.234375 -21.328125 L 25.140625 -21.328125 L 25.140625 0 L 20.296875 0 L 20.25 -13.53125 Z M 14.765625 -0.125 "/></g></g><g style="fill:#ffffff;fill-opacity:1;"><g transform="translate(189.745004, 229.455806)"><path style="stroke:none" d="M 20.96875 0 L 14.25 0 L 6.390625 -10.828125 L 6.390625 0 L 1.53125 0 L 1.53125 -21.328125 L 6.390625 -21.328125 L 6.390625 -10.828125 L 13.734375 -21.328125 L 19.625 -21.328125 L 11.921875 -10.828125 Z M 20.96875 0 "/></g></g></g></svg>